<?xml version="1.0" encoding="utf-8" standalone="no"?>
<!DOCTYPE svg PUBLIC "-//W3C//DTD SVG 1.1//EN"
  "http://www.w3.org/Graphics/SVG/1.1/DTD/svg11.dtd">
<svg xmlns:xlink="http://www.w3.org/1999/xlink" width="342.778348pt" height="322.795313pt" viewBox="0 0 342.778348 322.795313" xmlns="http://www.w3.org/2000/svg" version="1.1">
 <metadata>
  <rdf:RDF xmlns:dc="http://purl.org/dc/elements/1.1/" xmlns:cc="http://creativecommons.org/ns#" xmlns:rdf="http://www.w3.org/1999/02/22-rdf-syntax-ns#">
   <cc:Work>
    <dc:type rdf:resource="http://purl.org/dc/dcmitype/StillImage"/>
    <dc:date>2025-12-03T23:30:57.250377</dc:date>
    <dc:format>image/svg+xml</dc:format>
    <dc:creator>
     <cc:Agent>
      <dc:title>Matplotlib v3.10.6, https://matplotlib.org/</dc:title>
     </cc:Agent>
    </dc:creator>
   </cc:Work>
  </rdf:RDF>
 </metadata>
 <defs>
  <style type="text/css">*{stroke-linejoin: round; stroke-linecap: butt}</style>
 </defs>
 <g id="figure_1">
  <g id="patch_1">
   <path d="M 0 322.795313 
L 342.778348 322.795313 
L 342.778348 0 
L 0 0 
L 0 322.795313 
z
" style="fill: none"/>
  </g>
  <g id="axes_1">
   <g id="patch_2">
    <path d="M 53.957813 284.4 
L 332.957812 284.4 
L 332.957812 7.2 
L 53.957813 7.2 
L 53.957813 284.4 
z
" style="fill: none"/>
   </g>
   <g id="matplotlib.axis_1">
    <g id="xtick_1">
     <g id="line2d_1">
      <defs>
       <path id="m9457861f93" d="M 0 0 
L 0 3.5 
" style="stroke: #000000; stroke-width: 0.8"/>
      </defs>
      <g>
       <use xlink:href="#m9457861f93" x="53.957813" y="284.4" style="stroke: #000000; stroke-width: 0.8"/>
      </g>
     </g>
     <g id="text_1">
      <!-- 0 -->
      <g transform="translate(46.004688 310.396094) scale(0.25 -0.25)">
       <defs>
        <path id="DejaVuSans-30" d="M 2034 4250 
Q 1547 4250 1301 3770 
Q 1056 3291 1056 2328 
Q 1056 1369 1301 889 
Q 1547 409 2034 409 
Q 2525 409 2770 889 
Q 3016 1369 3016 2328 
Q 3016 3291 2770 3770 
Q 2525 4250 2034 4250 
z
M 2034 4750 
Q 2819 4750 3233 4129 
Q 3647 3509 3647 2328 
Q 3647 1150 3233 529 
Q 2819 -91 2034 -91 
Q 1250 -91 836 529 
Q 422 1150 422 2328 
Q 422 3509 836 4129 
Q 1250 4750 2034 4750 
z
" transform="scale(0.015625)"/>
       </defs>
       <use xlink:href="#DejaVuSans-30"/>
      </g>
     </g>
    </g>
    <g id="xtick_2">
     <g id="line2d_2">
      <g>
       <use xlink:href="#m9457861f93" x="186.814955" y="284.4" style="stroke: #000000; stroke-width: 0.8"/>
      </g>
     </g>
     <g id="text_2">
      <!-- 5 -->
      <g transform="translate(178.86183 310.396094) scale(0.25 -0.25)">
       <defs>
        <path id="DejaVuSans-35" d="M 691 4666 
L 3169 4666 
L 3169 4134 
L 1269 4134 
L 1269 2991 
Q 1406 3038 1543 3061 
Q 1681 3084 1819 3084 
Q 2600 3084 3056 2656 
Q 3513 2228 3513 1497 
Q 3513 744 3044 326 
Q 2575 -91 1722 -91 
Q 1428 -91 1123 -41 
Q 819 9 494 109 
L 494 744 
Q 775 591 1075 516 
Q 1375 441 1709 441 
Q 2250 441 2565 725 
Q 2881 1009 2881 1497 
Q 2881 1984 2565 2268 
Q 2250 2553 1709 2553 
Q 1456 2553 1204 2497 
Q 953 2441 691 2322 
L 691 4666 
z
" transform="scale(0.015625)"/>
       </defs>
       <use xlink:href="#DejaVuSans-35"/>
      </g>
     </g>
    </g>
    <g id="xtick_3">
     <g id="line2d_3">
      <g>
       <use xlink:href="#m9457861f93" x="319.672098" y="284.4" style="stroke: #000000; stroke-width: 0.8"/>
      </g>
     </g>
     <g id="text_3">
      <!-- 10 -->
      <g transform="translate(303.765848 310.396094) scale(0.25 -0.25)">
       <defs>
        <path id="DejaVuSans-31" d="M 794 531 
L 1825 531 
L 1825 4091 
L 703 3866 
L 703 4441 
L 1819 4666 
L 2450 4666 
L 2450 531 
L 3481 531 
L 3481 0 
L 794 0 
L 794 531 
z
" transform="scale(0.015625)"/>
       </defs>
       <use xlink:href="#DejaVuSans-31"/>
       <use xlink:href="#DejaVuSans-30" transform="translate(63.623047 0)"/>
      </g>
     </g>
    </g>
   </g>
   <g id="matplotlib.axis_2">
    <g id="ytick_1">
     <g id="line2d_4">
      <defs>
       <path id="m2aabb222bf" d="M 0 0 
L -3.5 0 
" style="stroke: #000000; stroke-width: 0.8"/>
      </defs>
      <g>
       <use xlink:href="#m2aabb222bf" x="53.957813" y="152.394007" style="stroke: #000000; stroke-width: 0.8"/>
      </g>
     </g>
     <g id="text_4">
      <!-- 0.5 -->
      <g transform="translate(7.2 161.892054) scale(0.25 -0.25)">
       <defs>
        <path id="DejaVuSans-2e" d="M 684 794 
L 1344 794 
L 1344 0 
L 684 0 
L 684 794 
z
" transform="scale(0.015625)"/>
       </defs>
       <use xlink:href="#DejaVuSans-30"/>
       <use xlink:href="#DejaVuSans-2e" transform="translate(63.623047 0)"/>
       <use xlink:href="#DejaVuSans-35" transform="translate(95.410156 0)"/>
      </g>
     </g>
    </g>
    <g id="ytick_2">
     <g id="line2d_5">
      <g>
       <use xlink:href="#m2aabb222bf" x="53.957813" y="20.388014" style="stroke: #000000; stroke-width: 0.8"/>
      </g>
     </g>
     <g id="text_5">
      <!-- 1 -->
      <g transform="translate(31.051563 29.886061) scale(0.25 -0.25)">
       <use xlink:href="#DejaVuSans-31"/>
      </g>
     </g>
    </g>
   </g>
   <g id="line2d_6">
    <path d="M 53.957813 284.4 
L 56.483361 260.461959 
L 59.008909 238.694387 
L 61.534458 218.900487 
L 64.060006 200.901305 
L 66.585555 184.534114 
L 69.111103 169.650941 
L 71.636652 156.117229 
L 74.1622 143.810623 
L 76.687749 132.61986 
L 79.213297 122.443767 
L 81.738846 113.190343 
L 84.264394 104.77593 
L 86.789943 97.124454 
L 89.315491 90.166739 
L 91.84104 83.839883 
L 94.366588 78.086684 
L 97.02506 72.593318 
L 99.683533 67.622963 
L 102.342005 63.125826 
L 105.000477 59.056851 
L 107.658949 55.375274 
L 110.450344 51.886248 
L 113.24174 48.745157 
L 116.166059 45.789912 
L 119.090379 43.14265 
L 122.147622 40.669559 
L 125.337788 38.375051 
L 128.660878 36.260526 
L 132.116892 34.324688 
L 135.705829 32.563885 
L 139.560614 30.91965 
L 143.681246 29.406768 
L 148.067725 28.034327 
L 152.852974 26.774177 
L 158.036995 25.642257 
L 163.75271 24.625323 
L 170.133043 23.720799 
L 177.310918 22.93185 
L 185.552181 22.253494 
L 195.255604 21.682787 
L 207.085805 21.217551 
L 222.106172 20.859357 
L 242.709331 20.605079 
L 275.009767 20.45238 
L 319.672098 20.4 
L 319.672098 20.4 
" clip-path="url(#p1e37b98dd0)" style="fill: none; stroke: #00bfff; stroke-width: 4; stroke-linecap: square"/>
   </g>
   <g id="line2d_7">
    <path d="M 53.957813 284.4 
L 57.147979 265.519152 
L 60.338146 247.98857 
L 63.528312 231.71169 
L 66.718479 216.598852 
L 69.908645 202.566811 
L 73.098812 189.538273 
L 76.288978 177.441473 
L 79.479145 166.209776 
L 82.669311 155.781316 
L 85.859478 146.098648 
L 89.049644 137.108437 
L 92.239811 128.761163 
L 95.429977 121.010844 
L 98.753067 113.526388 
L 102.076157 106.598635 
L 105.399248 100.186177 
L 108.722338 94.250687 
L 112.045428 88.756685 
L 115.501441 83.475983 
L 118.957455 78.603155 
L 122.413469 74.106697 
L 126.002406 69.804522 
L 129.591344 65.846895 
L 133.313204 62.077133 
L 137.035065 58.619986 
L 140.88985 55.341296 
L 144.877558 52.245134 
L 148.99819 49.333599 
L 153.251745 46.606974 
L 157.638224 44.063879 
L 162.157627 41.701453 
L 166.942876 39.456482 
L 171.86105 37.395313 
L 177.04507 35.463435 
L 182.494938 33.668627 
L 188.343577 31.979488 
L 194.590986 30.411783 
L 201.237166 28.976078 
L 208.415041 27.655575 
L 216.257534 26.443772 
L 224.764644 25.356622 
L 234.20222 24.377362 
L 244.836109 23.503205 
L 256.932157 22.739258 
L 270.889135 22.08748 
L 287.504586 21.542725 
L 307.841897 21.107525 
L 319.672098 20.934446 
L 319.672098 20.934446 
" clip-path="url(#p1e37b98dd0)" style="fill: none; stroke: #0000ff; stroke-width: 4; stroke-linecap: square"/>
   </g>
   <g id="line2d_8">
    <path d="M 53.957813 284.4 
L 63.262465 275.402496 
L 72.567117 266.711627 
L 82.004693 258.199113 
L 91.575193 249.867078 
L 101.278616 241.717305 
L 110.982039 233.856965 
L 120.818386 226.173819 
L 130.787656 218.668962 
L 140.88985 211.343189 
L 151.124968 204.197006 
L 161.493009 197.230637 
L 171.993973 190.444037 
L 182.627862 183.836899 
L 193.394674 177.408667 
L 204.294409 171.158548 
L 215.459992 165.01386 
L 226.758499 159.050898 
L 238.189929 153.267952 
L 249.887206 147.600094 
L 261.717407 142.113682 
L 273.813455 136.748554 
L 286.17535 131.509755 
L 298.803092 126.401739 
L 311.696682 121.428378 
L 319.672098 118.469573 
L 319.672098 118.469573 
" clip-path="url(#p1e37b98dd0)" style="fill: none; stroke: #000000; stroke-width: 4; stroke-linecap: square"/>
   </g>
   <g id="patch_3">
    <path d="M 53.957813 284.4 
L 53.957813 7.2 
" style="fill: none; stroke: #000000; stroke-width: 0.8; stroke-linejoin: miter; stroke-linecap: square"/>
   </g>
   <g id="patch_4">
    <path d="M 53.957813 284.4 
L 332.957812 284.4 
" style="fill: none; stroke: #000000; stroke-width: 0.8; stroke-linejoin: miter; stroke-linecap: square"/>
   </g>
  </g>
 </g>
 <defs>
  <clipPath id="p1e37b98dd0">
   <rect x="53.957813" y="7.2" width="279" height="277.2"/>
  </clipPath>
 </defs>
</svg>
