<?xml version="1.0" encoding="utf-8" standalone="no"?>
<!DOCTYPE svg PUBLIC "-//W3C//DTD SVG 1.1//EN"
  "http://www.w3.org/Graphics/SVG/1.1/DTD/svg11.dtd">
<svg xmlns:xlink="http://www.w3.org/1999/xlink" width="358.684598pt" height="322.795313pt" viewBox="0 0 358.684598 322.795313" xmlns="http://www.w3.org/2000/svg" version="1.1">
 <metadata>
  <rdf:RDF xmlns:dc="http://purl.org/dc/elements/1.1/" xmlns:cc="http://creativecommons.org/ns#" xmlns:rdf="http://www.w3.org/1999/02/22-rdf-syntax-ns#">
   <cc:Work>
    <dc:type rdf:resource="http://purl.org/dc/dcmitype/StillImage"/>
    <dc:date>2025-12-03T23:30:58.054021</dc:date>
    <dc:format>image/svg+xml</dc:format>
    <dc:creator>
     <cc:Agent>
      <dc:title>Matplotlib v3.10.6, https://matplotlib.org/</dc:title>
     </cc:Agent>
    </dc:creator>
   </cc:Work>
  </rdf:RDF>
 </metadata>
 <defs>
  <style type="text/css">*{stroke-linejoin: round; stroke-linecap: butt}</style>
 </defs>
 <g id="figure_1">
  <g id="patch_1">
   <path d="M 0 322.795313 
L 358.684598 322.795313 
L 358.684598 0 
L 0 0 
L 0 322.795313 
z
" style="fill: none"/>
  </g>
  <g id="axes_1">
   <g id="patch_2">
    <path d="M 69.864063 284.4 
L 348.864062 284.4 
L 348.864062 7.2 
L 69.864063 7.2 
L 69.864063 284.4 
z
" style="fill: none"/>
   </g>
   <g id="matplotlib.axis_1">
    <g id="xtick_1">
     <g id="line2d_1">
      <defs>
       <path id="m7876d5c85f" d="M 0 0 
L 0 3.5 
" style="stroke: #000000; stroke-width: 0.8"/>
      </defs>
      <g>
       <use xlink:href="#m7876d5c85f" x="69.864063" y="284.4" style="stroke: #000000; stroke-width: 0.8"/>
      </g>
     </g>
     <g id="text_1">
      <!-- 0 -->
      <g transform="translate(61.910938 310.396094) scale(0.25 -0.25)">
       <defs>
        <path id="DejaVuSans-30" d="M 2034 4250 
Q 1547 4250 1301 3770 
Q 1056 3291 1056 2328 
Q 1056 1369 1301 889 
Q 1547 409 2034 409 
Q 2525 409 2770 889 
Q 3016 1369 3016 2328 
Q 3016 3291 2770 3770 
Q 2525 4250 2034 4250 
z
M 2034 4750 
Q 2819 4750 3233 4129 
Q 3647 3509 3647 2328 
Q 3647 1150 3233 529 
Q 2819 -91 2034 -91 
Q 1250 -91 836 529 
Q 422 1150 422 2328 
Q 422 3509 836 4129 
Q 1250 4750 2034 4750 
z
" transform="scale(0.015625)"/>
       </defs>
       <use xlink:href="#DejaVuSans-30"/>
      </g>
     </g>
    </g>
    <g id="xtick_2">
     <g id="line2d_2">
      <g>
       <use xlink:href="#m7876d5c85f" x="202.721205" y="284.4" style="stroke: #000000; stroke-width: 0.8"/>
      </g>
     </g>
     <g id="text_2">
      <!-- 5 -->
      <g transform="translate(194.76808 310.396094) scale(0.25 -0.25)">
       <defs>
        <path id="DejaVuSans-35" d="M 691 4666 
L 3169 4666 
L 3169 4134 
L 1269 4134 
L 1269 2991 
Q 1406 3038 1543 3061 
Q 1681 3084 1819 3084 
Q 2600 3084 3056 2656 
Q 3513 2228 3513 1497 
Q 3513 744 3044 326 
Q 2575 -91 1722 -91 
Q 1428 -91 1123 -41 
Q 819 9 494 109 
L 494 744 
Q 775 591 1075 516 
Q 1375 441 1709 441 
Q 2250 441 2565 725 
Q 2881 1009 2881 1497 
Q 2881 1984 2565 2268 
Q 2250 2553 1709 2553 
Q 1456 2553 1204 2497 
Q 953 2441 691 2322 
L 691 4666 
z
" transform="scale(0.015625)"/>
       </defs>
       <use xlink:href="#DejaVuSans-35"/>
      </g>
     </g>
    </g>
    <g id="xtick_3">
     <g id="line2d_3">
      <g>
       <use xlink:href="#m7876d5c85f" x="335.578348" y="284.4" style="stroke: #000000; stroke-width: 0.8"/>
      </g>
     </g>
     <g id="text_3">
      <!-- 10 -->
      <g transform="translate(319.672098 310.396094) scale(0.25 -0.25)">
       <defs>
        <path id="DejaVuSans-31" d="M 794 531 
L 1825 531 
L 1825 4091 
L 703 3866 
L 703 4441 
L 1819 4666 
L 2450 4666 
L 2450 531 
L 3481 531 
L 3481 0 
L 794 0 
L 794 531 
z
" transform="scale(0.015625)"/>
       </defs>
       <use xlink:href="#DejaVuSans-31"/>
       <use xlink:href="#DejaVuSans-30" transform="translate(63.623047 0)"/>
      </g>
     </g>
    </g>
   </g>
   <g id="matplotlib.axis_2">
    <g id="ytick_1">
     <g id="line2d_4">
      <defs>
       <path id="m52f4517592" d="M 0 0 
L -3.5 0 
" style="stroke: #000000; stroke-width: 0.8"/>
      </defs>
      <g>
       <use xlink:href="#m52f4517592" x="69.864063" y="149.685981" style="stroke: #000000; stroke-width: 0.8"/>
      </g>
     </g>
     <g id="text_4">
      <!-- 0.25 -->
      <g transform="translate(7.2 159.184028) scale(0.25 -0.25)">
       <defs>
        <path id="DejaVuSans-2e" d="M 684 794 
L 1344 794 
L 1344 0 
L 684 0 
L 684 794 
z
" transform="scale(0.015625)"/>
        <path id="DejaVuSans-32" d="M 1228 531 
L 3431 531 
L 3431 0 
L 469 0 
L 469 531 
Q 828 903 1448 1529 
Q 2069 2156 2228 2338 
Q 2531 2678 2651 2914 
Q 2772 3150 2772 3378 
Q 2772 3750 2511 3984 
Q 2250 4219 1831 4219 
Q 1534 4219 1204 4116 
Q 875 4013 500 3803 
L 500 4441 
Q 881 4594 1212 4672 
Q 1544 4750 1819 4750 
Q 2544 4750 2975 4387 
Q 3406 4025 3406 3419 
Q 3406 3131 3298 2873 
Q 3191 2616 2906 2266 
Q 2828 2175 2409 1742 
Q 1991 1309 1228 531 
z
" transform="scale(0.015625)"/>
       </defs>
       <use xlink:href="#DejaVuSans-30"/>
       <use xlink:href="#DejaVuSans-2e" transform="translate(63.623047 0)"/>
       <use xlink:href="#DejaVuSans-32" transform="translate(95.410156 0)"/>
       <use xlink:href="#DejaVuSans-35" transform="translate(159.033203 0)"/>
      </g>
     </g>
    </g>
    <g id="ytick_2">
     <g id="line2d_5">
      <g>
       <use xlink:href="#m52f4517592" x="69.864063" y="20.153271" style="stroke: #000000; stroke-width: 0.8"/>
      </g>
     </g>
     <g id="text_5">
      <!-- 0.5 -->
      <g transform="translate(23.10625 29.651318) scale(0.25 -0.25)">
       <use xlink:href="#DejaVuSans-30"/>
       <use xlink:href="#DejaVuSans-2e" transform="translate(63.623047 0)"/>
       <use xlink:href="#DejaVuSans-35" transform="translate(95.410156 0)"/>
      </g>
     </g>
    </g>
   </g>
   <g id="line2d_6">
    <path d="M 69.864063 20.153271 
L 71.592069 51.749323 
L 73.320076 79.491867 
L 75.048083 103.850885 
L 76.77609 125.239036 
L 78.504097 144.018652 
L 80.232104 160.507875 
L 81.960111 174.986045 
L 83.688117 187.698432 
L 85.416124 198.860396 
L 87.144131 208.661028 
L 88.872138 217.266359 
L 90.600145 224.822169 
L 92.328152 231.45646 
L 94.056159 237.281621 
L 95.917089 242.762908 
L 97.778019 247.527775 
L 99.63895 251.669862 
L 101.49988 255.270567 
L 103.360811 258.40065 
L 105.221741 261.121623 
L 107.215595 263.643569 
L 109.209449 265.814065 
L 111.336227 267.796937 
L 113.463005 269.486493 
L 115.722706 271.008677 
L 118.115331 272.361728 
L 120.773803 273.605246 
L 123.698122 274.714292 
L 126.888289 275.675831 
L 130.477226 276.51451 
L 134.464934 277.215685 
L 139.250184 277.821493 
L 144.965899 278.309997 
L 152.143774 278.689294 
L 161.847197 278.963663 
L 176.601717 279.134691 
L 206.110757 279.209579 
L 335.578348 279.218691 
L 335.578348 279.218691 
" clip-path="url(#pe91e3c0cdf)" style="fill: none; stroke: #00bfff; stroke-width: 4; stroke-linecap: square"/>
   </g>
   <g id="line2d_7">
    <path d="M 69.864063 20.153271 
L 72.123764 46.00334 
L 74.383465 69.274037 
L 76.643166 90.222738 
L 78.902868 109.081134 
L 81.162569 126.057802 
L 83.42227 141.340504 
L 85.681971 155.098267 
L 87.941673 167.483253 
L 90.201374 178.63244 
L 92.461075 188.669139 
L 94.720777 197.704355 
L 96.980478 205.83802 
L 99.240179 213.160091 
L 101.49988 219.751551 
L 103.759582 225.685302 
L 106.019283 231.026972 
L 108.411908 236.103067 
L 110.804533 240.644491 
L 113.197158 244.70756 
L 115.589783 248.342662 
L 118.115331 251.765156 
L 120.640879 254.80828 
L 123.166428 257.514085 
L 125.8249 260.038925 
L 128.616296 262.374534 
L 131.407691 264.425726 
L 134.332011 266.307219 
L 137.522177 268.087915 
L 140.845267 269.682176 
L 144.434205 271.148514 
L 148.288989 272.473324 
L 152.409621 273.649947 
L 156.929024 274.705823 
L 161.980121 275.650844 
L 167.562912 276.466883 
L 174.076169 277.186184 
L 181.652814 277.789921 
L 190.691619 278.280366 
L 202.123049 278.667368 
L 217.409264 278.947933 
L 240.405047 279.125794 
L 284.934455 279.206986 
L 335.578348 279.217582 
L 335.578348 279.217582 
" clip-path="url(#pe91e3c0cdf)" style="fill: none; stroke: #0000ff; stroke-width: 4; stroke-linecap: square"/>
   </g>
   <g id="line2d_8">
    <path d="M 69.864063 20.153271 
L 75.712701 31.203441 
L 81.56134 41.782278 
L 87.409978 51.909885 
L 93.391541 61.82099 
L 99.373103 71.299951 
L 105.354665 80.365612 
L 111.336227 89.035992 
L 117.450713 97.508434 
L 123.565199 105.603438 
L 129.812608 113.502073 
L 136.060018 121.041359 
L 142.307427 128.237645 
L 148.68776 135.249236 
L 155.068093 141.935207 
L 161.58135 148.440305 
L 168.22753 154.760523 
L 174.87371 160.7753 
L 181.652814 166.611011 
L 188.564841 172.265207 
L 195.476869 177.635497 
L 202.52182 182.831674 
L 209.699695 187.852617 
L 217.010493 192.69777 
L 224.454215 197.367113 
L 232.03086 201.861138 
L 239.873353 206.253136 
L 247.848769 210.463925 
L 255.957109 214.495865 
L 264.331296 218.411963 
L 272.97133 222.204195 
L 281.744288 225.812858 
L 290.783093 229.292136 
L 300.087746 232.637134 
L 309.791169 235.886999 
L 319.760439 238.989917 
L 330.12848 241.981477 
L 335.578348 243.463683 
L 335.578348 243.463683 
" clip-path="url(#pe91e3c0cdf)" style="fill: none; stroke: #000000; stroke-width: 4; stroke-linecap: square"/>
   </g>
   <g id="patch_3">
    <path d="M 69.864063 284.4 
L 69.864063 7.2 
" style="fill: none; stroke: #000000; stroke-width: 0.8; stroke-linejoin: miter; stroke-linecap: square"/>
   </g>
   <g id="patch_4">
    <path d="M 69.864063 284.4 
L 348.864062 284.4 
" style="fill: none; stroke: #000000; stroke-width: 0.8; stroke-linejoin: miter; stroke-linecap: square"/>
   </g>
  </g>
 </g>
 <defs>
  <clipPath id="pe91e3c0cdf">
   <rect x="69.864063" y="7.2" width="279" height="277.2"/>
  </clipPath>
 </defs>
</svg>
