<?xml version="1.0" encoding="utf-8" standalone="no"?>
<!DOCTYPE svg PUBLIC "-//W3C//DTD SVG 1.1//EN"
  "http://www.w3.org/Graphics/SVG/1.1/DTD/svg11.dtd">
<svg xmlns:xlink="http://www.w3.org/1999/xlink" width="340.157812pt" height="322.795313pt" viewBox="0 0 340.157812 322.795313" xmlns="http://www.w3.org/2000/svg" version="1.1">
 <metadata>
  <rdf:RDF xmlns:dc="http://purl.org/dc/elements/1.1/" xmlns:cc="http://creativecommons.org/ns#" xmlns:rdf="http://www.w3.org/1999/02/22-rdf-syntax-ns#">
   <cc:Work>
    <dc:type rdf:resource="http://purl.org/dc/dcmitype/StillImage"/>
    <dc:date>2025-10-23T14:57:33.898772</dc:date>
    <dc:format>image/svg+xml</dc:format>
    <dc:creator>
     <cc:Agent>
      <dc:title>Matplotlib v3.10.6, https://matplotlib.org/</dc:title>
     </cc:Agent>
    </dc:creator>
   </cc:Work>
  </rdf:RDF>
 </metadata>
 <defs>
  <style type="text/css">*{stroke-linejoin: round; stroke-linecap: butt}</style>
 </defs>
 <g id="figure_1">
  <g id="patch_1">
   <path d="M 0 322.795313 
L 340.157812 322.795313 
L 340.157812 0 
L 0 0 
L 0 322.795313 
z
" style="fill: none"/>
  </g>
  <g id="axes_1">
   <g id="patch_2">
    <path d="M 53.957813 284.4 
L 332.957812 284.4 
L 332.957812 7.2 
L 53.957813 7.2 
L 53.957813 284.4 
z
" style="fill: none"/>
   </g>
   <g id="matplotlib.axis_1">
    <g id="xtick_1">
     <g id="line2d_1">
      <defs>
       <path id="md795d74d88" d="M 0 0 
L 0 3.5 
" style="stroke: #000000; stroke-width: 0.8"/>
      </defs>
      <g>
       <use xlink:href="#md795d74d88" x="53.957813" y="284.4" style="stroke: #000000; stroke-width: 0.8"/>
      </g>
     </g>
     <g id="text_1">
      <!-- 0 -->
      <g transform="translate(46.004688 310.396094) scale(0.25 -0.25)">
       <defs>
        <path id="DejaVuSans-30" d="M 2034 4250 
Q 1547 4250 1301 3770 
Q 1056 3291 1056 2328 
Q 1056 1369 1301 889 
Q 1547 409 2034 409 
Q 2525 409 2770 889 
Q 3016 1369 3016 2328 
Q 3016 3291 2770 3770 
Q 2525 4250 2034 4250 
z
M 2034 4750 
Q 2819 4750 3233 4129 
Q 3647 3509 3647 2328 
Q 3647 1150 3233 529 
Q 2819 -91 2034 -91 
Q 1250 -91 836 529 
Q 422 1150 422 2328 
Q 422 3509 836 4129 
Q 1250 4750 2034 4750 
z
" transform="scale(0.015625)"/>
       </defs>
       <use xlink:href="#DejaVuSans-30"/>
      </g>
     </g>
    </g>
    <g id="xtick_2">
     <g id="line2d_2">
      <g>
       <use xlink:href="#md795d74d88" x="187.450635" y="284.4" style="stroke: #000000; stroke-width: 0.8"/>
      </g>
     </g>
     <g id="text_2">
      <!-- 5 -->
      <g transform="translate(179.49751 310.396094) scale(0.25 -0.25)">
       <defs>
        <path id="DejaVuSans-35" d="M 691 4666 
L 3169 4666 
L 3169 4134 
L 1269 4134 
L 1269 2991 
Q 1406 3038 1543 3061 
Q 1681 3084 1819 3084 
Q 2600 3084 3056 2656 
Q 3513 2228 3513 1497 
Q 3513 744 3044 326 
Q 2575 -91 1722 -91 
Q 1428 -91 1123 -41 
Q 819 9 494 109 
L 494 744 
Q 775 591 1075 516 
Q 1375 441 1709 441 
Q 2250 441 2565 725 
Q 2881 1009 2881 1497 
Q 2881 1984 2565 2268 
Q 2250 2553 1709 2553 
Q 1456 2553 1204 2497 
Q 953 2441 691 2322 
L 691 4666 
z
" transform="scale(0.015625)"/>
       </defs>
       <use xlink:href="#DejaVuSans-35"/>
      </g>
     </g>
    </g>
   </g>
   <g id="matplotlib.axis_2">
    <g id="ytick_1">
     <g id="line2d_3">
      <defs>
       <path id="mfe3a11ba83" d="M 0 0 
L -3.5 0 
" style="stroke: #000000; stroke-width: 0.8"/>
      </defs>
      <g>
       <use xlink:href="#mfe3a11ba83" x="53.957813" y="212.274064" style="stroke: #000000; stroke-width: 0.8"/>
      </g>
     </g>
     <g id="text_3">
      <!-- 0.1 -->
      <g transform="translate(7.2 221.772111) scale(0.25 -0.25)">
       <defs>
        <path id="DejaVuSans-2e" d="M 684 794 
L 1344 794 
L 1344 0 
L 684 0 
L 684 794 
z
" transform="scale(0.015625)"/>
        <path id="DejaVuSans-31" d="M 794 531 
L 1825 531 
L 1825 4091 
L 703 3866 
L 703 4441 
L 1819 4666 
L 2450 4666 
L 2450 531 
L 3481 531 
L 3481 0 
L 794 0 
L 794 531 
z
" transform="scale(0.015625)"/>
       </defs>
       <use xlink:href="#DejaVuSans-30"/>
       <use xlink:href="#DejaVuSans-2e" transform="translate(63.623047 0)"/>
       <use xlink:href="#DejaVuSans-31" transform="translate(95.410156 0)"/>
      </g>
     </g>
    </g>
    <g id="ytick_2">
     <g id="line2d_4">
      <g>
       <use xlink:href="#mfe3a11ba83" x="53.957813" y="68.022192" style="stroke: #000000; stroke-width: 0.8"/>
      </g>
     </g>
     <g id="text_4">
      <!-- 0.3 -->
      <g transform="translate(7.2 77.520239) scale(0.25 -0.25)">
       <defs>
        <path id="DejaVuSans-33" d="M 2597 2516 
Q 3050 2419 3304 2112 
Q 3559 1806 3559 1356 
Q 3559 666 3084 287 
Q 2609 -91 1734 -91 
Q 1441 -91 1130 -33 
Q 819 25 488 141 
L 488 750 
Q 750 597 1062 519 
Q 1375 441 1716 441 
Q 2309 441 2620 675 
Q 2931 909 2931 1356 
Q 2931 1769 2642 2001 
Q 2353 2234 1838 2234 
L 1294 2234 
L 1294 2753 
L 1863 2753 
Q 2328 2753 2575 2939 
Q 2822 3125 2822 3475 
Q 2822 3834 2567 4026 
Q 2313 4219 1838 4219 
Q 1578 4219 1281 4162 
Q 984 4106 628 3988 
L 628 4550 
Q 988 4650 1302 4700 
Q 1616 4750 1894 4750 
Q 2613 4750 3031 4423 
Q 3450 4097 3450 3541 
Q 3450 3153 3228 2886 
Q 3006 2619 2597 2516 
z
" transform="scale(0.015625)"/>
       </defs>
       <use xlink:href="#DejaVuSans-30"/>
       <use xlink:href="#DejaVuSans-2e" transform="translate(63.623047 0)"/>
       <use xlink:href="#DejaVuSans-33" transform="translate(95.410156 0)"/>
      </g>
     </g>
    </g>
   </g>
   <g id="line2d_5">
    <path d="M 80.656377 20.117591 
L 107.354942 186.410241 
L 134.053506 219.008053 
L 160.752071 236.28485 
L 187.450635 248.057195 
L 214.1492 255.980282 
L 240.847765 262.616464 
L 267.546329 267.659821 
L 294.244894 271.136449 
L 320.943458 274.34776 
" clip-path="url(#p1dd2e22fe7)" style="fill: none; stroke: #000000; stroke-width: 4; stroke-linecap: square"/>
   </g>
   <g id="line2d_6">
    <path d="M 80.656377 116.119834 
L 107.354942 223.989342 
L 134.053506 240.531349 
L 160.752071 254.234336 
L 187.450635 260.557856 
L 214.1492 265.025828 
L 240.847765 267.027843 
L 267.546329 268.700852 
L 294.244894 271.672319 
L 320.943458 269.703513 
" clip-path="url(#p1dd2e22fe7)" style="fill: none; stroke: #dc143c; stroke-width: 4; stroke-linecap: square"/>
   </g>
   <g id="line2d_7">
    <path d="M 80.656377 112.842143 
L 107.354942 231.288083 
L 134.053506 250.353973 
L 160.752071 260.801968 
L 187.450635 267.813715 
L 214.1492 273.367016 
L 240.847765 273.723384 
L 267.546329 276.375946 
L 294.244894 276.692163 
L 320.943458 278.469409 
" clip-path="url(#p1dd2e22fe7)" style="fill: none; stroke-dasharray: 14.8,6.4; stroke-dashoffset: 0; stroke: #00bfff; stroke-width: 4"/>
   </g>
   <g id="patch_3">
    <path d="M 53.957813 284.4 
L 53.957813 7.2 
" style="fill: none; stroke: #000000; stroke-width: 0.8; stroke-linejoin: miter; stroke-linecap: square"/>
   </g>
   <g id="patch_4">
    <path d="M 53.957813 284.4 
L 332.957812 284.4 
" style="fill: none; stroke: #000000; stroke-width: 0.8; stroke-linejoin: miter; stroke-linecap: square"/>
   </g>
   <g id="PathCollection_1">
    <defs>
     <path id="maef348cc61" d="M 0 3 
C 0.795609 3 1.55874 2.683901 2.12132 2.12132 
C 2.683901 1.55874 3 0.795609 3 0 
C 3 -0.795609 2.683901 -1.55874 2.12132 -2.12132 
C 1.55874 -2.683901 0.795609 -3 0 -3 
C -0.795609 -3 -1.55874 -2.683901 -2.12132 -2.12132 
C -2.683901 -1.55874 -3 -0.795609 -3 0 
C -3 0.795609 -2.683901 1.55874 -2.12132 2.12132 
C -1.55874 2.683901 -0.795609 3 0 3 
z
" style="stroke: #0000ff; stroke-width: 4"/>
    </defs>
    <g clip-path="url(#p1dd2e22fe7)">
     <use xlink:href="#maef348cc61" x="80.656377" y="112.842143" style="fill: #0000ff; stroke: #0000ff; stroke-width: 4"/>
     <use xlink:href="#maef348cc61" x="107.354942" y="231.288083" style="fill: #0000ff; stroke: #0000ff; stroke-width: 4"/>
     <use xlink:href="#maef348cc61" x="134.053506" y="250.353973" style="fill: #0000ff; stroke: #0000ff; stroke-width: 4"/>
     <use xlink:href="#maef348cc61" x="160.752071" y="260.801968" style="fill: #0000ff; stroke: #0000ff; stroke-width: 4"/>
     <use xlink:href="#maef348cc61" x="187.450635" y="267.813715" style="fill: #0000ff; stroke: #0000ff; stroke-width: 4"/>
     <use xlink:href="#maef348cc61" x="214.1492" y="273.367016" style="fill: #0000ff; stroke: #0000ff; stroke-width: 4"/>
     <use xlink:href="#maef348cc61" x="240.847765" y="273.723384" style="fill: #0000ff; stroke: #0000ff; stroke-width: 4"/>
     <use xlink:href="#maef348cc61" x="267.546329" y="276.375946" style="fill: #0000ff; stroke: #0000ff; stroke-width: 4"/>
     <use xlink:href="#maef348cc61" x="294.244894" y="276.692163" style="fill: #0000ff; stroke: #0000ff; stroke-width: 4"/>
     <use xlink:href="#maef348cc61" x="320.943458" y="278.469409" style="fill: #0000ff; stroke: #0000ff; stroke-width: 4"/>
    </g>
   </g>
  </g>
 </g>
 <defs>
  <clipPath id="p1dd2e22fe7">
   <rect x="53.957813" y="7.2" width="279" height="277.2"/>
  </clipPath>
 </defs>
</svg>
